<?xml version="1.0" standalone="no"?>
<!DOCTYPE svg PUBLIC "-//W3C//DTD SVG 20010904//EN"
 "http://www.w3.org/TR/2001/REC-SVG-20010904/DTD/svg10.dtd">
<svg version="1.0" xmlns="http://www.w3.org/2000/svg"
 width="1280.000000pt" height="793.000000pt" viewBox="0 0 1280.000000 793.000000"
 preserveAspectRatio="xMidYMid meet">
<g transform="translate(0.000000,793.000000) scale(0.100000,-0.100000)"
fill="#000000" stroke="none">
<path d="M5503 7870 c-24 -10 -53 -58 -53 -89 0 -50 53 -101 105 -101 16 0
149 -105 190 -150 12 -13 18 -32 17 -50 -2 -16 6 -50 17 -75 19 -44 19 -55 1
-100 -5 -11 -20 -51 -34 -90 -100 -280 -98 -276 -133 -290 -39 -16 -73 -68
-73 -110 0 -67 69 -128 139 -123 30 2 98 -51 234 -181 51 -50 57 -59 57 -97 0
-28 8 -54 26 -80 31 -45 32 -30 -25 -304 -30 -146 -45 -198 -58 -205 -10 -5
-37 -29 -61 -51 l-43 -42 -102 -6 c-56 -4 -157 -12 -224 -18 l-123 -11 -40 37
c-22 20 -44 36 -49 36 -17 0 -22 50 -6 73 35 51 -1 138 -62 150 -96 18 -163
-112 -88 -172 14 -10 25 -24 25 -31 0 -7 -17 3 -38 21 -21 19 -64 54 -95 79
-43 35 -56 51 -57 73 -1 95 -105 147 -190 96 -36 -23 -60 -22 -200 1 -30 5
-99 15 -153 22 l-99 11 -24 39 c-14 21 -35 44 -48 49 -33 16 -41 80 -15 123
28 46 25 92 -10 127 -92 92 -230 -44 -141 -139 13 -14 20 -33 18 -49 l-3 -27
-37 33 c-21 18 -38 42 -38 53 0 35 -31 79 -66 94 -42 17 -69 11 -106 -24 -58
-54 -23 -151 59 -168 17 -3 53 -26 81 -50 46 -40 50 -48 45 -77 -3 -20 2 -49
12 -72 l17 -40 -69 -137 c-37 -76 -74 -138 -81 -138 -27 0 -72 -60 -72 -96 0
-46 43 -93 92 -101 33 -5 41 -2 74 31 32 32 36 40 32 79 -4 36 4 60 63 178 63
127 70 137 101 143 18 3 44 18 59 32 30 29 27 29 244 -5 33 -5 94 -14 135 -20
61 -9 78 -16 94 -36 26 -36 71 -57 117 -54 34 3 47 -3 106 -51 140 -115 143
-118 143 -165 0 -27 7 -51 20 -68 25 -32 25 -45 -1 -132 -23 -77 -30 -103 -79
-277 -30 -106 -35 -118 -62 -129 -16 -6 -41 -26 -56 -44 l-27 -32 -146 -12
c-81 -6 -192 -11 -246 -11 -87 0 -102 3 -118 20 -22 25 -79 43 -106 35 -11 -4
-36 -20 -54 -37 -40 -34 -52 -81 -36 -130 11 -32 6 -46 -83 -234 -89 -188 -95
-200 -127 -209 -43 -13 -71 -33 -93 -66 -14 -23 -25 -27 -89 -33 -39 -3 -117
-10 -172 -16 -267 -25 -245 -25 -260 -3 -19 28 -76 53 -118 53 -37 0 -32 -5
-142 125 -27 32 -69 80 -92 107 -24 27 -43 50 -43 52 0 2 5 17 11 34 8 25 7
39 -11 79 l-21 49 49 122 c40 99 57 130 91 161 36 33 41 43 41 80 0 35 -6 48
-31 72 -42 39 -87 39 -131 0 -32 -28 -36 -49 -28 -132 1 -8 -22 -72 -51 -141
-50 -120 -54 -127 -85 -132 -29 -6 -85 -55 -95 -85 -2 -6 -49 -15 -104 -21
-118 -12 -227 -27 -309 -41 -53 -9 -59 -9 -72 9 -19 28 -80 54 -118 51 -30 -3
-40 5 -117 91 -46 51 -110 122 -142 157 -48 52 -56 67 -51 88 3 14 1 38 -6 54
-11 27 -6 38 73 178 46 81 92 163 101 181 12 24 23 32 44 32 15 0 41 8 57 18
27 17 33 17 65 4 19 -7 51 -33 71 -55 33 -38 41 -42 84 -42 39 0 51 5 71 28
36 42 33 99 -6 139 -28 28 -35 30 -78 25 -45 -6 -132 16 -132 32 0 4 29 24 63
44 49 28 75 37 110 37 37 0 51 5 76 31 44 43 43 89 -3 135 -54 54 -122 39
-161 -36 -9 -18 -41 -43 -79 -65 -56 -31 -67 -34 -92 -24 -16 6 -48 11 -70 10
-41 0 -45 3 -143 108 -56 60 -101 117 -101 128 0 20 -25 61 -50 80 -8 7 -32
13 -53 13 -50 0 -97 -43 -97 -90 0 -61 45 -110 100 -110 10 0 61 -45 119 -107
95 -100 101 -110 101 -149 0 -22 5 -55 11 -71 9 -28 4 -41 -67 -164 -43 -74
-88 -152 -100 -173 -17 -29 -34 -44 -66 -56 -80 -29 -111 -113 -65 -181 27
-40 60 -59 104 -59 27 0 44 -14 130 -111 54 -61 117 -132 139 -157 36 -40 40
-50 32 -71 -10 -28 -2 -76 18 -108 13 -21 10 -32 -32 -125 -103 -231 -95 -218
-135 -228 -21 -6 -50 -25 -68 -45 -29 -33 -34 -35 -93 -35 -34 0 -136 -5 -226
-11 -157 -11 -164 -10 -185 9 -77 70 -177 51 -212 -41 -15 -39 -15 -48 -2 -79
14 -34 14 -35 -82 -224 -91 -180 -98 -189 -129 -195 -19 -4 -48 -20 -65 -37
-31 -29 -34 -30 -97 -22 -36 5 -104 13 -151 19 -65 7 -96 16 -124 35 -44 30
-64 32 -105 11 -28 -14 -60 -60 -60 -85 0 -27 33 -78 56 -89 34 -15 75 -14
100 4 19 12 41 12 179 0 108 -9 160 -17 166 -27 24 -39 44 -57 79 -73 32 -14
42 -27 58 -69 52 -133 52 -134 41 -165 -23 -65 25 -131 95 -131 51 0 87 35 93
90 4 39 2 49 -22 73 -15 15 -31 27 -35 27 -6 0 -40 71 -40 84 0 2 18 6 39 10
68 11 104 76 77 140 -15 37 -46 56 -92 56 -20 0 -24 5 -24 30 0 16 -5 41 -12
55 -11 24 -4 43 82 216 84 167 97 189 119 189 14 0 36 14 55 33 l32 34 231 6
231 7 29 -29 c31 -31 90 -52 122 -44 17 4 83 -65 191 -201 13 -17 45 -55 72
-84 46 -51 47 -54 41 -102 -4 -39 -1 -56 15 -85 21 -34 21 -38 6 -83 -9 -26
-22 -60 -29 -77 -8 -16 -33 -82 -56 -146 -39 -106 -45 -117 -73 -125 -17 -5
-41 -24 -54 -44 -30 -44 -26 -109 8 -145 27 -29 83 -49 112 -41 24 6 55 -14
134 -84 64 -57 203 -173 216 -181 6 -4 12 -27 13 -52 2 -25 10 -58 18 -73 14
-27 13 -34 -25 -119 -21 -49 -47 -107 -55 -128 -9 -21 -29 -45 -45 -53 -35
-18 -48 -43 -48 -92 0 -55 38 -92 94 -92 66 0 118 66 97 123 -8 21 0 47 47
156 31 72 61 131 67 131 7 0 32 10 56 22 54 28 92 20 133 -29 50 -59 130 -52
169 15 22 38 18 69 -17 109 -23 26 -29 28 -108 28 -45 0 -89 4 -96 9 -9 5 8
22 58 57 57 39 80 49 112 49 56 0 98 42 98 98 0 33 -6 45 -35 71 -20 17 -47
31 -61 31 -35 0 -82 -35 -98 -74 -17 -41 -144 -130 -163 -114 -6 5 -37 8 -67
7 -58 -3 -71 4 -191 110 -23 20 -77 67 -122 104 -72 61 -82 73 -88 110 -12 78
-6 101 59 272 61 161 66 170 96 179 17 5 48 28 68 51 39 44 51 50 117 60 161
22 197 26 253 32 42 4 62 2 62 -5 0 -18 58 -43 108 -47 25 -2 48 -9 52 -14 9
-15 108 -137 148 -182 18 -21 32 -44 31 -51 -4 -30 2 -48 27 -77 21 -26 33
-31 68 -31 76 0 119 56 96 125 -12 36 -59 75 -90 75 -14 0 -78 72 -168 188
-28 36 -33 49 -28 77 4 20 0 51 -9 77 -20 57 -20 57 14 130 17 35 54 117 83
183 49 108 57 120 82 123 17 2 46 21 73 49 l46 45 96 8 c235 20 347 31 363 36
10 3 21 -3 28 -15 15 -28 62 -51 104 -51 39 0 53 -15 174 -198 58 -87 61 -94
55 -137 -11 -86 37 -145 120 -145 38 0 52 6 81 34 32 30 36 39 36 85 0 67 -35
110 -98 118 -42 6 -44 8 -124 127 -45 66 -89 131 -99 144 -14 18 -16 29 -8 48
13 37 11 107 -5 129 -15 21 -10 34 118 296 57 117 71 138 94 144 15 3 41 19
57 34 29 27 34 28 215 40 277 17 287 17 316 -18 13 -16 35 -32 48 -35 30 -7
40 -50 20 -88 -21 -41 -17 -74 15 -110 24 -27 36 -33 71 -33 35 0 47 6 72 34
26 29 29 40 25 74 -3 22 -16 51 -30 66 -13 14 -27 36 -30 49 -5 22 -4 22 16 9
12 -7 75 -44 140 -82 109 -64 117 -71 117 -100 0 -17 12 -47 26 -68 25 -38 25
-39 11 -100 -8 -34 -23 -97 -32 -140 -13 -56 -26 -88 -46 -109 -35 -39 -43
-71 -29 -114 22 -66 106 -84 159 -35 34 32 42 84 19 121 -9 14 -9 30 0 67 6
26 21 92 34 147 21 92 25 100 58 121 19 13 46 36 60 52 25 29 29 30 140 37 63
3 167 10 230 15 l115 9 38 -34 c20 -19 42 -34 47 -34 14 0 12 -52 -3 -71 -7
-9 -12 -34 -11 -55 2 -29 10 -45 34 -67 91 -81 215 46 137 140 -13 15 -26 38
-29 50 -5 19 5 15 76 -29 172 -107 186 -118 186 -144 0 -28 22 -75 43 -92 11
-10 8 -35 -23 -160 -32 -127 -42 -152 -69 -179 -86 -86 10 -214 119 -158 43
22 59 101 30 140 -5 6 9 78 30 160 l38 150 38 20 c20 11 45 32 53 47 15 25 19
26 131 32 63 3 165 10 225 14 105 8 111 8 135 -13 42 -38 69 -47 114 -41 38 6
47 2 136 -60 52 -36 103 -71 113 -77 11 -8 17 -25 17 -47 0 -19 8 -48 19 -65
18 -30 18 -31 -6 -95 -70 -187 -87 -222 -110 -231 -29 -11 -58 -69 -50 -101
19 -75 92 -107 152 -67 40 27 50 53 42 111 -5 38 7 85 43 163 5 11 19 48 32
81 19 52 28 64 56 74 17 6 46 23 63 37 27 24 35 25 97 20 188 -15 339 -28 352
-30 8 -2 37 -25 64 -52 49 -49 50 -49 54 -126 3 -60 1 -82 -12 -100 -27 -38
-21 -96 13 -130 39 -38 87 -39 130 -3 26 22 31 33 31 72 0 32 -6 52 -20 67
-16 17 -22 41 -26 106 -6 75 -4 85 13 95 15 9 32 6 81 -13 34 -14 62 -29 62
-35 0 -5 11 -20 25 -33 18 -19 35 -25 68 -25 94 0 134 94 69 163 -25 26 -31
28 -82 24 -39 -3 -67 1 -95 13 -22 9 -48 20 -57 23 -10 4 -18 16 -18 28 0 11
-9 33 -20 49 l-19 27 62 186 62 187 45 22 c33 17 51 35 68 68 19 39 29 47 75
61 28 9 106 33 172 53 66 21 134 42 151 48 31 11 37 10 84 -17 30 -18 90 -19
124 -4 21 10 31 8 68 -14 24 -13 66 -37 93 -53 28 -15 93 -53 145 -83 87 -52
95 -60 101 -93 7 -45 32 -84 59 -93 19 -6 20 -14 20 -156 0 -82 -4 -149 -9
-149 -16 0 -42 -68 -35 -95 17 -69 116 -98 168 -50 33 31 37 99 6 138 -18 22
-20 40 -20 156 l0 132 39 38 c27 26 41 50 45 77 7 42 9 43 96 91 30 17 96 53
147 81 91 51 92 51 127 37 45 -19 70 -19 107 0 29 15 32 14 150 -45 153 -77
154 -77 166 -110 25 -65 120 -76 167 -19 61 72 -1 171 -96 157 -27 -4 -58 8
-171 70 -101 55 -137 79 -134 91 6 25 -31 91 -58 103 l-25 11 0 211 0 210 36
38 c23 23 39 50 43 73 6 36 11 39 196 141 118 64 196 102 205 97 8 -3 40 -7
70 -8 53 -1 60 -5 175 -90 66 -48 140 -103 164 -122 24 -18 48 -33 53 -33 5 0
7 -9 3 -19 -3 -10 1 -38 10 -62 8 -24 15 -61 15 -81 0 -24 8 -46 25 -66 21
-25 25 -40 25 -95 0 -54 -5 -73 -25 -103 -30 -44 -31 -59 -5 -102 35 -57 108
-66 157 -20 30 28 32 94 3 131 -19 24 -20 33 -11 109 9 87 23 131 58 187 12
18 24 48 27 66 7 36 21 47 175 135 74 43 101 53 131 51 56 -4 100 37 100 94 0
53 -29 92 -74 101 -45 8 -95 -19 -110 -58 -9 -24 -39 -47 -144 -109 -112 -67
-136 -78 -153 -69 -11 6 -48 10 -82 8 -60 -2 -65 -1 -124 42 -33 25 -106 78
-162 118 -113 82 -110 80 -131 141 -40 117 -187 119 -230 3 -11 -28 -26 -48
-46 -58 -16 -9 -51 -28 -79 -43 -27 -16 -72 -41 -100 -56 -27 -15 -78 -43
-112 -61 -35 -20 -64 -31 -67 -25 -12 18 -90 23 -127 8 -34 -14 -35 -14 -164
53 -195 102 -210 112 -214 140 -5 37 -27 75 -54 93 -24 15 -25 22 -32 155 -7
130 -6 140 14 173 11 19 21 43 21 54 0 32 -35 81 -69 95 -84 34 -169 -79 -112
-151 15 -20 19 -49 24 -165 l6 -142 -26 -23 c-31 -30 -53 -71 -53 -101 0 -19
-31 -42 -190 -136 -159 -94 -193 -111 -209 -102 -34 18 -115 12 -144 -11 l-27
-20 -117 36 c-141 43 -131 40 -168 49 -87 22 -144 46 -150 66 -9 30 -40 59
-79 75 -20 8 -36 21 -36 27 0 14 -45 139 -62 175 -6 13 -10 38 -9 55 7 93 5
100 -27 130 -18 15 -44 28 -58 28 -41 0 -84 -29 -100 -66 -14 -32 -13 -39 3
-72 10 -20 28 -41 40 -46 15 -7 32 -41 63 -124 47 -129 47 -132 27 -186 -10
-26 -12 -49 -7 -68 8 -25 -3 -44 -113 -192 -114 -154 -124 -165 -155 -165 -42
-1 -83 -22 -114 -59 -24 -29 -25 -29 -189 -40 -336 -23 -320 -24 -341 3 -10
13 -36 32 -58 41 -39 18 -70 67 -49 79 5 4 9 25 9 49 0 34 -6 48 -30 71 -41
40 -89 39 -131 0 -27 -27 -30 -35 -27 -77 2 -29 -1 -44 -7 -40 -5 3 -36 24
-67 46 -53 36 -58 43 -58 77 0 22 -10 50 -26 74 -21 31 -24 42 -15 64 5 14 13
40 17 56 4 17 8 35 10 40 7 21 26 92 35 130 6 24 22 49 39 63 55 43 49 125
-12 162 -42 26 -84 19 -120 -21 -30 -31 -36 -75 -18 -109 8 -15 4 -45 -16
-117 -14 -54 -29 -111 -34 -128 -15 -59 -30 -85 -46 -85 -10 0 -34 -17 -54
-39 l-36 -38 -175 -12 c-298 -20 -300 -20 -327 12 -13 15 -30 27 -38 27 -7 0
-18 9 -24 21 -9 16 -7 29 10 64 19 40 20 46 6 79 -32 76 -127 85 -174 16 -28
-42 -24 -82 13 -120 14 -14 25 -34 25 -43 0 -18 -15 -9 -187 102 -66 43 -83
59 -83 78 0 30 -23 84 -42 101 -17 14 -18 7 32 242 17 80 33 159 36 175 9 54
14 63 49 84 40 23 75 75 75 111 0 22 16 33 141 94 124 60 143 67 165 57 104
-47 213 51 170 153 -34 80 -142 100 -199 36 -15 -17 -30 -44 -33 -59 -5 -25
-23 -36 -143 -95 l-138 -66 -45 20 c-39 17 -85 19 -108 5 -3 -2 -55 41 -115
97 -61 55 -120 107 -132 115 -16 11 -23 25 -23 48 0 19 -7 46 -16 62 -19 32
-19 30 96 344 42 114 43 116 84 130 26 9 48 26 61 46 l20 32 126 1 c95 0 130
-4 145 -15 33 -25 97 -19 128 11 36 37 37 104 1 139 -31 32 -101 35 -132 6
-17 -16 -42 -21 -145 -26 -99 -6 -127 -5 -133 6 -5 8 -4 14 3 17 16 5 42 56
42 81 0 54 -49 101 -106 101 -41 0 -94 -59 -94 -104 0 -25 -4 -36 -15 -36 -8
0 -57 39 -109 86 -65 60 -96 95 -100 115 -12 62 -80 94 -143 69z m997 -1265
c0 -3 -36 -23 -80 -45 -44 -22 -80 -38 -80 -35 0 4 146 82 158 85 1 0 2 -2 2
-5z m-180 -95 c-8 -5 -19 -10 -25 -10 -5 0 -3 5 5 10 8 5 20 10 25 10 6 0 3
-5 -5 -10z m-40 -15 c0 -2 -9 -9 -20 -15 -12 -6 -20 -7 -20 -1 0 5 8 12 18 14
9 3 18 5 20 6 1 0 2 -1 2 -4z m3911 -833 c280 -149 289 -154 289 -173 0 -30
26 -74 60 -102 l30 -26 0 -203 0 -204 -35 -34 c-21 -20 -41 -53 -49 -79 -7
-25 -19 -49 -27 -53 -108 -63 -305 -168 -315 -168 -7 0 -16 5 -19 10 -8 13
-101 13 -125 0 -14 -8 -28 -5 -53 9 -317 178 -333 189 -346 233 -7 24 -28 59
-46 78 l-33 35 -6 162 -7 163 35 35 c24 24 38 48 42 75 6 38 11 43 108 101 55
34 121 73 146 87 25 14 62 36 84 49 35 23 42 24 83 14 45 -12 109 -6 119 10 7
12 5 13 65 -19z m-4334 -72 c13 -16 31 -30 38 -30 21 0 28 -50 10 -69 -8 -10
-15 -35 -15 -57 0 -43 33 -85 77 -98 32 -10 89 18 107 53 22 41 20 62 -7 102
-32 47 -41 73 -24 66 8 -3 70 -42 139 -87 122 -79 126 -82 131 -122 3 -23 15
-54 26 -69 l20 -27 -29 -109 c-17 -59 -34 -124 -40 -143 -5 -19 -19 -69 -29
-110 -26 -103 -27 -105 -67 -119 -22 -8 -44 -26 -55 -46 -19 -32 -22 -33 -102
-38 -45 -3 -152 -11 -237 -17 -148 -11 -155 -10 -171 8 -8 11 -28 26 -45 35
-32 17 -37 48 -15 102 35 84 -49 171 -127 131 -68 -35 -81 -99 -32 -161 25
-32 40 -75 26 -75 -3 0 -65 36 -139 80 -126 75 -135 82 -140 115 -3 19 -15 48
-27 64 l-20 30 67 242 c67 239 68 242 104 264 19 13 49 37 66 54 22 22 42 31
65 32 41 1 412 26 416 28 2 0 15 -12 29 -29z m3208 -90 c92 -28 162 -49 206
-62 27 -7 38 -17 48 -44 7 -19 28 -47 47 -62 l34 -27 -1 -164 c0 -162 0 -164
-25 -183 -26 -21 -57 -72 -48 -81 6 -6 -53 -29 -166 -63 -47 -14 -123 -37
-169 -51 l-83 -25 -38 21 c-21 12 -56 21 -78 21 -37 0 -44 5 -108 81 -38 45
-90 106 -116 137 -44 50 -47 58 -42 93 4 21 2 51 -4 67 -9 27 -3 38 115 196
106 140 130 166 152 166 14 0 39 8 56 18 32 20 29 21 220 -38z m-1973 -190
c16 -16 36 -30 44 -30 19 0 28 -43 15 -68 -16 -30 -13 -89 5 -117 23 -36 74
-49 117 -31 43 17 57 41 57 96 0 31 -6 47 -26 66 -54 55 -14 37 86 -37 71 -54
104 -84 103 -96 -3 -23 24 -98 41 -112 10 -9 0 -58 -53 -246 -44 -158 -70
-235 -80 -235 -7 0 -28 -15 -47 -34 -37 -37 -21 -34 -361 -52 l-123 -7 -20 26
c-11 14 -30 29 -41 32 -30 10 -43 51 -24 78 27 38 15 104 -24 134 -9 7 -36 13
-59 13 -36 0 -49 -5 -73 -31 -39 -42 -39 -84 1 -129 16 -19 29 -43 30 -52 0
-13 -21 -4 -87 38 -49 31 -97 61 -108 67 -55 33 -69 49 -72 84 -2 20 -13 49
-24 64 -24 34 -25 25 41 264 5 17 20 74 34 129 13 54 26 99 28 100 2 1 20 9
41 19 20 9 42 28 49 42 13 30 37 34 249 44 266 13 247 15 281 -19z m1184 -274
c10 -25 55 -48 108 -55 50 -6 50 -6 162 -139 l111 -132 -1 -59 c-1 -46 4 -66
20 -88 l21 -28 -64 -192 c-62 -184 -65 -192 -96 -202 -17 -7 -43 -22 -57 -35
-24 -24 -27 -24 -125 -16 -55 5 -156 14 -225 20 -80 7 -126 15 -129 23 -2 7
-19 27 -38 46 -27 26 -33 41 -33 74 0 22 7 48 15 57 9 10 18 34 22 54 7 43
-13 78 -58 101 -41 22 -82 11 -115 -28 -21 -25 -25 -38 -21 -70 3 -21 12 -46
21 -56 17 -19 23 -111 7 -111 -4 0 -24 12 -44 28 -20 15 -70 51 -111 80 -42
29 -76 61 -77 70 -1 35 -8 54 -24 72 -15 17 -15 26 15 132 17 62 35 127 40
143 5 17 19 70 32 118 21 81 26 90 55 102 17 7 43 29 59 49 29 36 30 36 109
37 44 1 112 5 150 9 39 4 114 8 168 8 77 2 99 -1 103 -12z m-5536 -497 c29
-23 53 -33 90 -37 46 -4 54 -9 92 -56 24 -28 78 -91 120 -139 64 -74 76 -92
68 -107 -15 -28 -12 -62 9 -103 l19 -38 -37 -82 c-21 -45 -58 -127 -82 -182
-53 -123 -52 -121 -93 -129 -33 -6 -78 -46 -89 -78 -4 -10 -12 -18 -19 -18 -7
0 -74 -9 -148 -20 -238 -36 -225 -35 -252 -10 -29 28 -60 40 -102 40 -37 0
-39 3 -171 160 -38 46 -89 105 -112 131 -40 46 -41 50 -37 101 4 41 1 60 -13
83 l-19 29 72 161 c59 132 76 161 95 165 44 9 86 39 99 70 9 22 19 30 39 31
14 0 35 2 46 4 20 4 104 15 275 36 47 6 87 13 89 15 10 9 24 2 61 -27z m1451
-593 c44 -65 76 -117 71 -115 -9 4 -168 233 -186 269 -16 31 37 -39 115 -154z"/>
<path d="M10140 5641 c0 -15 69 -53 81 -45 7 4 -3 16 -27 30 -42 26 -54 29
-54 15z"/>
<path d="M9901 5611 c-25 -17 -39 -31 -32 -35 14 -9 91 35 91 52 0 17 -9 15
-59 -17z"/>
<path d="M10340 5532 c0 -14 78 -53 84 -43 4 5 -9 19 -28 30 -35 22 -56 27
-56 13z"/>
<path d="M9693 5488 c-18 -11 -33 -26 -33 -34 0 -12 10 -9 42 10 44 26 60 47
36 45 -7 0 -28 -10 -45 -21z"/>
<path d="M10504 5308 c3 -13 6 -35 6 -50 0 -16 5 -28 10 -28 6 0 10 23 10 50
0 39 -3 50 -16 50 -12 0 -15 -6 -10 -22z"/>
<path d="M9550 5255 c0 -25 5 -45 10 -45 6 0 10 20 10 45 0 25 -4 45 -10 45
-5 0 -10 -20 -10 -45z"/>
<path d="M9550 5051 c0 -22 5 -43 10 -46 6 -4 10 12 10 39 0 25 -4 46 -10 46
-5 0 -10 -18 -10 -39z"/>
<path d="M10510 5040 c0 -27 5 -50 10 -50 6 0 10 23 10 50 0 28 -4 50 -10 50
-5 0 -10 -22 -10 -50z"/>
<path d="M9660 4845 c0 -7 78 -55 90 -55 19 0 9 15 -25 38 -32 20 -65 29 -65
17z"/>
<path d="M10383 4808 c-29 -18 -43 -38 -27 -38 16 0 83 44 78 52 -7 11 -14 9
-51 -14z"/>
<path d="M9882 4718 c5 -14 57 -46 76 -47 25 -2 11 19 -28 39 -45 23 -53 25
-48 8z"/>
<path d="M10186 4699 c-27 -14 -35 -24 -28 -31 11 -11 82 26 82 43 0 13 -10
11 -54 -12z"/>
<path d="M8920 5501 c0 -8 31 -23 78 -36 41 -12 24 19 -18 33 -47 14 -60 15
-60 3z"/>
<path d="M8743 5440 c-28 -34 -39 -60 -25 -60 16 0 65 71 56 80 -5 4 -19 -5
-31 -20z"/>
<path d="M9150 5431 c0 -8 31 -23 78 -36 41 -12 24 19 -18 33 -47 14 -60 15
-60 3z"/>
<path d="M9340 5255 c0 -25 5 -45 10 -45 6 0 10 20 10 45 0 25 -4 45 -10 45
-5 0 -10 -20 -10 -45z"/>
<path d="M8596 5243 c-14 -20 -22 -41 -19 -46 7 -11 62 51 63 71 0 23 -19 12
-44 -25z"/>
<path d="M9340 5045 c0 -25 5 -45 10 -45 6 0 10 20 10 45 0 25 -4 45 -10 45
-5 0 -10 -20 -10 -45z"/>
<path d="M8590 5020 c17 -22 36 -38 41 -34 12 7 -40 74 -58 74 -10 0 -5 -13
17 -40z"/>
<path d="M9207 4885 c-43 -15 -53 -22 -44 -31 9 -9 90 20 95 34 5 15 -3 15
-51 -3z"/>
<path d="M8710 4884 c0 -16 60 -73 66 -63 3 6 -6 24 -22 40 -26 27 -44 37 -44
23z"/>
<path d="M8951 4806 c-51 -18 -20 -31 35 -15 24 7 44 17 44 21 0 11 -40 8 -79
-6z"/>
<path d="M2588 4523 c-39 -6 -35 -23 5 -23 41 0 77 10 77 21 0 9 -31 10 -82 2z"/>
<path d="M2342 4490 c-40 -9 -50 -18 -31 -25 22 -8 92 9 97 23 4 13 -16 14
-66 2z"/>
<path d="M2855 4460 c-9 -15 46 -83 58 -71 7 7 0 22 -21 45 -17 20 -34 31 -37
26z"/>
<path d="M2115 4339 c-9 -17 -14 -38 -10 -47 6 -14 9 -13 20 8 20 40 27 70 16
70 -6 0 -18 -14 -26 -31z"/>
<path d="M2997 4293 c-4 -7 8 -28 27 -48 44 -49 56 -29 12 20 -20 24 -35 34
-39 28z"/>
<path d="M2038 4160 c-22 -35 -32 -70 -19 -70 12 0 43 68 38 84 -2 6 -11 -1
-19 -14z"/>
<path d="M3050 4004 c-20 -45 -20 -68 0 -48 18 18 40 83 30 89 -6 4 -19 -15
-30 -41z"/>
<path d="M2055 3910 c-8 -12 46 -80 63 -80 19 0 15 10 -23 51 -19 21 -37 34
-40 29z"/>
<path d="M2960 3806 c-5 -15 -15 -36 -20 -46 -6 -12 -7 -21 0 -25 14 -9 54 75
41 88 -7 7 -13 2 -21 -17z"/>
<path d="M2216 3722 c-2 -4 10 -27 29 -50 18 -24 36 -38 40 -32 3 5 -8 28 -26
50 -35 43 -36 44 -43 32z"/>
<path d="M2728 3613 c-26 -3 -38 -9 -38 -20 0 -10 6 -13 16 -9 9 3 31 6 50 6
24 0 34 5 34 15 0 8 -6 14 -12 13 -7 -1 -30 -3 -50 -5z"/>
<path d="M2501 3578 c-55 -12 -41 -26 21 -20 35 3 45 7 41 18 -3 8 -8 14 -12
13 -3 -1 -26 -6 -50 -11z"/>
<path d="M4845 3935 c-19 -18 -25 -35 -25 -66 0 -36 6 -48 39 -79 30 -29 50
-65 86 -153 44 -111 45 -117 30 -141 -10 -15 -15 -41 -14 -70 3 -50 7 -44
-177 -237 -79 -83 -84 -86 -133 -91 -35 -4 -59 -12 -76 -28 l-24 -22 -103 16
c-57 9 -120 19 -141 22 -21 3 -41 13 -47 24 -13 25 -64 44 -97 35 -64 -16 -99
-86 -70 -142 21 -40 57 -57 104 -48 62 11 131 10 236 -5 86 -12 99 -17 114
-40 19 -29 49 -53 78 -60 15 -5 37 -49 92 -185 70 -177 71 -179 53 -203 -14
-17 -18 -37 -16 -80 l3 -57 -87 -95 c-47 -52 -107 -121 -134 -152 -44 -52 -52
-58 -88 -58 -48 0 -103 -22 -117 -47 -7 -14 -19 -19 -38 -17 -15 2 -89 8 -163
14 -194 16 -199 17 -210 45 -11 29 -49 55 -93 64 -29 6 -37 17 -89 121 -50
101 -57 120 -52 157 10 78 -46 133 -120 119 -77 -15 -102 -108 -45 -165 17
-17 35 -31 40 -31 6 0 37 -56 70 -124 58 -123 59 -124 43 -156 -12 -23 -15
-46 -11 -80 6 -48 5 -49 -66 -138 -40 -49 -97 -122 -127 -161 -51 -66 -58 -71
-93 -71 -44 0 -71 -12 -109 -47 -24 -23 -32 -25 -75 -18 -26 4 -93 10 -149 14
-84 6 -105 11 -124 29 -18 16 -36 22 -71 22 -40 0 -51 -4 -73 -31 -36 -43 -35
-91 3 -130 34 -34 92 -40 130 -13 21 15 35 16 130 5 58 -6 125 -11 149 -11 37
0 48 -5 85 -45 27 -27 56 -47 76 -51 30 -6 37 -17 107 -156 l74 -148 -16 -32
c-12 -23 -15 -45 -10 -83 6 -49 4 -55 -32 -100 -98 -125 -145 -175 -162 -175
-33 0 -80 -57 -80 -97 0 -44 54 -103 94 -103 58 0 106 50 106 112 0 15 33 66
88 136 83 106 89 111 125 112 44 0 71 12 108 47 27 25 27 25 140 14 63 -6 161
-15 218 -20 100 -9 106 -11 129 -41 26 -33 70 -60 100 -60 14 0 34 -31 79
-123 52 -105 60 -128 56 -164 -4 -37 -1 -46 25 -73 25 -24 39 -30 75 -30 38 0
49 5 71 31 17 19 26 43 26 64 0 36 -41 95 -65 95 -8 0 -43 57 -79 127 -63 124
-64 127 -49 157 10 20 14 45 10 80 l-5 51 84 110 c128 167 126 165 163 165 38
0 66 13 102 47 l26 24 215 -8 214 -8 33 -38 c23 -25 47 -41 77 -48 47 -12 48
-14 133 -170 32 -61 40 -83 35 -108 -11 -56 37 -110 99 -111 50 0 97 43 97 90
0 44 -24 85 -59 100 -23 9 -44 38 -95 129 l-66 118 17 42 c13 34 14 48 5 78
-13 41 -9 52 47 124 20 26 58 79 84 117 43 61 53 70 87 76 24 4 52 19 74 40
32 29 36 39 36 82 0 66 -27 109 -78 125 -37 11 -41 16 -121 177 -65 130 -81
171 -76 191 18 70 17 96 -7 131 -44 65 -117 79 -182 35 l-36 -24 -118 15
c-230 30 -247 33 -250 44 -10 28 -67 81 -95 88 -30 8 -36 18 -103 182 -65 161
-69 176 -57 200 7 14 13 46 11 72 -2 47 -1 48 104 160 58 62 117 126 131 143
21 25 31 29 64 27 28 -2 49 4 78 24 39 26 41 27 110 15 39 -6 101 -14 139 -18
57 -5 75 -11 102 -36 79 -68 193 -7 168 90 -17 70 -104 103 -153 59 -14 -12
-31 -11 -121 4 -58 10 -126 21 -152 25 -34 4 -49 11 -53 25 -7 22 -50 56 -78
61 -13 3 -33 40 -67 127 -41 103 -47 128 -38 147 14 31 3 71 -27 101 -34 34
-106 34 -140 -1z m119 -637 c-99 -112 -224 -240 -224 -232 0 6 16 26 36 45 20
18 74 78 121 132 48 53 91 97 96 97 5 0 -8 -19 -29 -42z m221 -1008 c165 -22
192 -29 210 -56 9 -14 37 -35 62 -46 44 -20 47 -23 125 -186 75 -158 79 -169
68 -200 -6 -18 -9 -52 -6 -75 5 -40 2 -47 -92 -176 -97 -133 -98 -133 -142
-137 -35 -3 -53 -12 -82 -41 l-37 -36 -168 12 c-92 6 -188 11 -213 11 -40 0
-50 5 -82 39 -25 27 -50 42 -74 47 -36 7 -38 9 -120 177 -78 161 -82 171 -67
193 10 16 14 41 11 77 -3 53 -1 56 42 104 25 27 85 94 133 150 l88 101 55 4
c45 4 61 11 86 35 27 28 33 30 71 22 23 -4 83 -13 132 -19z m-1026 -441 l135
-11 41 -43 c28 -28 54 -44 78 -49 36 -7 38 -9 118 -174 l81 -167 -17 -47 c-13
-35 -14 -55 -7 -82 11 -40 22 -22 -124 -211 -53 -69 -83 -100 -98 -101 -43 -1
-82 -16 -111 -44 l-30 -28 -195 13 c-107 8 -206 14 -218 15 -14 0 -37 15 -55
36 -35 39 -75 64 -104 64 -14 0 -37 38 -91 146 l-72 145 15 45 c9 28 13 60 9
84 -7 44 -19 25 154 243 87 109 95 117 128 117 40 0 80 18 109 50 17 19 27 21
70 16 27 -3 110 -10 184 -17z"/>
<path d="M5025 2271 c14 -13 83 -18 87 -6 2 6 -19 11 -47 13 -33 2 -47 0 -40
-7z"/>
<path d="M5240 2243 c0 -10 81 -26 89 -17 9 8 -8 16 -48 21 -24 3 -41 2 -41
-4z"/>
<path d="M4820 2175 c-19 -19 -30 -38 -26 -42 3 -4 23 9 42 29 20 19 32 38 27
41 -6 4 -25 -9 -43 -28z"/>
<path d="M5460 2125 c0 -18 42 -85 50 -80 12 7 -26 85 -40 85 -6 0 -10 -2 -10
-5z"/>
<path d="M4662 1997 c-18 -18 -29 -36 -25 -40 7 -8 73 51 73 65 0 16 -17 7
-48 -25z"/>
<path d="M5558 1934 c-7 -6 34 -84 45 -84 13 0 7 24 -13 58 -21 33 -23 36 -32
26z"/>
<path d="M4600 1775 c0 -17 42 -85 50 -80 12 7 -22 85 -37 85 -7 0 -13 -2 -13
-5z"/>
<path d="M5561 1659 c-15 -20 -20 -34 -13 -41 6 -6 17 3 31 25 11 19 21 37 21
41 0 15 -18 4 -39 -25z"/>
<path d="M4700 1575 c0 -18 42 -85 50 -80 12 7 -26 85 -40 85 -6 0 -10 -2 -10
-5z"/>
<path d="M5443 1495 c-26 -40 -28 -45 -10 -45 16 0 50 61 40 71 -4 4 -18 -7
-30 -26z"/>
<path d="M4910 1395 c0 -11 12 -15 50 -15 49 0 66 12 34 24 -32 12 -84 7 -84
-9z"/>
<path d="M5160 1380 c20 -13 87 -13 95 0 4 6 -16 10 -52 10 -41 0 -54 -3 -43
-10z"/>
<path d="M3950 1831 c0 -9 79 -21 93 -14 4 3 5 9 2 14 -8 12 -95 12 -95 0z"/>
<path d="M4170 1810 c0 -5 8 -10 19 -10 10 0 33 -3 50 -6 24 -5 31 -3 31 10 0
13 -11 16 -50 16 -27 0 -50 -4 -50 -10z"/>
<path d="M3738 1720 c-15 -22 -23 -42 -19 -45 11 -6 73 70 64 79 -11 11 -17 6
-45 -34z"/>
<path d="M4416 1701 c-9 -14 32 -93 44 -86 6 4 1 24 -11 48 -26 51 -26 51 -33
38z"/>
<path d="M3587 1535 c-19 -23 -24 -36 -16 -41 11 -6 36 18 60 59 18 31 -14 18
-44 -18z"/>
<path d="M4510 1490 c0 -16 33 -80 42 -80 12 0 10 16 -9 55 -16 33 -33 46 -33
25z"/>
<path d="M3530 1315 c0 -12 35 -75 42 -75 12 0 10 18 -7 50 -13 25 -35 41 -35
25z"/>
<path d="M4513 1217 c-33 -48 -28 -68 7 -27 29 33 39 60 23 60 -5 0 -18 -15
-30 -33z"/>
<path d="M3628 1134 c-5 -5 17 -72 27 -83 2 -1 8 0 14 4 7 4 4 20 -9 46 -21
41 -23 43 -32 33z"/>
<path d="M4385 1052 c-32 -41 -36 -50 -26 -57 14 -8 66 64 55 75 -5 5 -17 -3
-29 -18z"/>
<path d="M3830 962 c0 -10 47 -22 87 -22 15 0 23 5 21 13 -5 14 -108 23 -108
9z"/>
<path d="M4080 941 c0 -18 94 -29 104 -12 3 5 -1 12 -10 15 -24 9 -94 7 -94
-3z"/>
</g>
</svg>
